Coordinates
version=1
nRows=17
nColumns=40
inDegrees=yes

Units are S.I. units (second, meters, Newtons, ...)
Angles are in degrees.

endheader
time	pelvis_tilt	pelvis_list	pelvis_rotation	pelvis_tx	pelvis_ty	pelvis_tz	hip_flexion_r	hip_adduction_r	hip_rotation_r	knee_angle_r	knee_angle_r_beta	ankle_angle_r	subtalar_angle_r	mtp_angle_r	hip_flexion_l	hip_adduction_l	hip_rotation_l	knee_angle_l	knee_angle_l_beta	ankle_angle_l	subtalar_angle_l	mtp_angle_l	lumbar_extension	lumbar_bending	lumbar_rotation	arm_flex_r	arm_add_r	arm_rot_r	elbow_flex_r	pro_sup_r	wrist_flex_r	wrist_dev_r	arm_flex_l	arm_add_l	arm_rot_l	elbow_flex_l	pro_sup_l	wrist_flex_l	wrist_dev_l
     12.37000000	     -3.93946811	     -5.18280821	      2.16307822	      0.81946012	      0.93024655	      0.49287922	     13.51684040	      4.77282449	    -16.54950315	     16.46478392	     16.46478392	      8.61084883	     -2.00400209	     -3.26895289	     25.99908104	    -12.37833986	     -0.63160868	     61.09543699	     61.09543699	     12.47044924	    -18.92069030	     15.82252953	     -9.58128589	      7.91447301	      2.31026677	     10.99967301	    -16.50877028	     -1.44274402	     49.23746872	     45.57441735	      0.00000000	      0.00000000	      8.92528544	     -9.76805495	     -4.40336228	     55.60576494	     46.21531055	      0.00000000	      0.00000000
     12.38350000	     -4.08485143	     -5.06359678	      2.51268551	      0.81757061	      0.93078367	      0.49332439	     13.00339796	      4.75227733	    -16.71540652	     15.89421936	     15.89421936	      8.72795105	     -1.96214827	     -3.23793668	     27.31967321	    -12.18577389	     -0.46661359	     59.14963435	     59.14963435	     12.63593537	    -18.89671932	     15.71026281	     -9.60628344	      7.71916909	      1.88808403	     13.59912814	    -16.30385801	     -1.51781062	     51.19651465	     45.52031631	      0.00000000	      0.00000000	      7.53904117	     -9.62027778	     -4.06534629	     53.76172153	     46.16359306	      0.00000000	      0.00000000
     12.39700000	     -4.22217854	     -4.96304763	      2.84632392	      0.81569983	      0.93123842	      0.49372527	     12.46710339	      4.73842493	    -16.96689860	     15.29711357	     15.29711357	      8.76942178	     -1.78074873	     -3.50771655	     28.43893738	    -11.99229793	     -0.35585799	     56.87050897	     56.87050897	     12.47570591	    -18.87317761	     14.93328398	     -9.64335850	      7.60669069	      2.18464105	     15.35840585	    -16.91112415	     -0.74241053	     54.45283644	     45.38188007	      0.00000000	      0.00000000	      7.39026368	     -8.96296157	     -3.69956816	     49.60141706	     46.13398535	      0.00000000	      0.00000000
     12.41050000	     -4.33505871	     -4.89490526	      3.15931882	      0.81387008	      0.93161715	      0.49409096	     11.92406093	      4.78008955	    -17.10460894	     14.72514794	     14.72514794	      8.90031304	     -1.69848959	     -3.52889904	     29.39534973	    -11.75894180	     -0.20518824	     54.37141416	     54.37141416	     12.50280256	    -18.80872739	     14.95035856	     -9.74425282	      7.51843695	      1.89064502	     17.90636831	    -16.76100055	     -0.89049469	     56.60716866	     45.32681910	      0.00000000	      0.00000000	      6.18416168	     -8.75935780	     -3.31418332	     47.60005727	     46.08124759	      0.00000000	      0.00000000
     12.42400000	     -4.46294815	     -4.83671686	      3.46226047	      0.81205674	      0.93189093	      0.49430124	     11.40682384	      4.80645990	    -17.36299241	     14.16034314	     14.16034314	      8.95957083	     -1.49110211	     -3.65794308	     30.21457764	    -11.47812415	     -0.05848834	     51.61031292	     51.61031292	     12.42552159	    -18.69528237	     14.78147284	     -9.81884776	      7.45789198	      1.86108078	     20.17400838	    -16.83380671	     -0.77842848	     59.04754867	     45.25240667	      0.00000000	      0.00000000	      5.44444777	     -8.41137725	     -2.88828676	     44.68755029	     46.02615915	      0.00000000	      0.00000000
     12.43750000	     -4.56918627	     -4.70335276	      3.70514385	      0.81032545	      0.93210214	      0.49436881	     10.91048003	      4.74213466	    -17.46630691	     13.69604512	     13.69604512	      9.10730452	     -1.35202091	     -3.74327119	     30.81141135	    -11.05392930	      0.07572932	     48.58369765	     48.58369765	     12.43580183	    -18.57090562	     14.78874556	     -9.93326612	      7.31320904	      1.87379043	     22.47450342	    -16.82315015	     -0.83359519	     61.04149108	     45.19936552	      0.00000000	      0.00000000	      4.45824153	     -8.12303945	     -2.56802132	     42.69153556	     45.97557285	      0.00000000	      0.00000000
     12.45100000	     -4.72644933	     -4.66959945	      3.96265021	      0.80858947	      0.93207965	      0.49431356	     10.45803357	      4.75133141	    -17.83312709	     13.19512083	     13.19512083	      9.18303315	     -0.89634069	     -4.15973276	     31.37780738	    -10.70759702	      0.22450059	     45.33387354	     45.33387354	     11.89621150	    -18.37619178	     13.66365372	     -9.92615854	      7.29876032	      2.41342410	     24.03009835	    -17.56262602	     -0.45716474	     64.33554881	     45.09375491	      0.00000000	      0.00000000	      4.63998767	     -7.50933624	     -1.96262879	     38.28934208	     45.91075940	      0.00000000	      0.00000000
     12.46450000	     -4.84127676	     -4.61119965	      4.16434353	      0.80686103	      0.93203124	      0.49418106	     10.02510398	      4.75401873	    -17.91656454	     12.81071822	     12.81071822	      9.35092403	     -0.79684193	     -4.21957492	     31.79585212	    -10.26518372	      0.46389480	     41.99443859	     41.99443859	     11.85177096	    -17.97681710	     13.69004163	    -10.02948340	      7.23708253	      2.32100051	     26.40269103	    -17.32938033	     -0.70961060	     66.30230752	     45.05132558	      0.00000000	      0.00000000	      3.41050683	     -7.34125335	     -1.71143592	     36.96092716	     45.86326356	      0.00000000	      0.00000000
     12.47800000	     -5.00772066	     -4.65877059	      4.38568428	      0.80513303	      0.93172046	      0.49387256	      9.64122932	      4.83153745	    -18.21776044	     12.40724489	     12.40724489	      9.52951250	     -0.39822634	     -4.40833596	     32.24038937	     -9.89566362	      0.76907286	     38.60948486	     38.60948486	     11.58061923	    -17.36643266	     13.13074115	    -10.06160054	      7.31899567	      2.27250074	     28.57757300	    -17.22683521	     -0.67657147	     68.75599354	     44.98475449	      0.00000000	      0.00000000	      2.39040781	     -7.13198112	     -1.35208071	     35.08366965	     45.80484453	      0.00000000	      0.00000000
     12.49150000	     -5.13785356	     -4.61931806	      4.54666290	      0.80351888	      0.93144021	      0.49349307	      9.23928753	      4.81997444	    -18.39107896	     12.08030093	     12.08030093	      9.77696495	     -0.14528445	     -4.56407885	     32.48889593	     -9.48452591	      0.87630499	     35.11142363	     35.11142363	     11.45092559	    -16.33257873	     12.86010669	    -10.09860241	      7.29643555	      2.34832525	     30.67867254	    -17.11867575	     -0.65483707	     70.84805352	     44.92842782	      0.00000000	      0.00000000	      1.27003024	     -6.99100081	     -1.08578849	     33.70893215	     45.75462393	      0.00000000	      0.00000000
     12.50500000	     -5.33199377	     -4.66944186	      4.68381054	      0.80191224	      0.93092449	      0.49305119	      8.90765887	      4.89299253	    -18.57266197	     11.73947645	     11.73947645	      9.99473826	      0.20553223	     -4.72478680	     32.79042958	     -9.15395448	      1.02428967	     31.72302231	     31.72302231	     11.37718368	    -14.96622611	     12.55083552	    -10.08745805	      7.32948255	      2.37680578	     32.77370746	    -17.00724095	     -0.57788725	     73.02626694	     44.86739272	      0.00000000	      0.00000000	      0.13506035	     -6.82933585	     -0.81413673	     32.44626070	     45.70263875	      0.00000000	      0.00000000
     12.51850000	     -5.45293511	     -4.89273020	      4.87437249	      0.80046251	      0.93026571	      0.49245074	      8.44098922	      5.14132875	    -19.05666826	     11.29331771	     11.29331771	     10.19468737	      0.95542757	     -5.01350293	     33.06555199	     -9.00174931	      1.17242235	     28.55070007	     28.55070007	     10.90448729	    -13.40586228	     11.21992518	    -10.14636536	      7.64831511	      2.45790671	     34.56642057	    -17.16569687	     -0.08179418	     76.48842126	     44.75957968	      0.00000000	      0.00000000	     -0.75277096	     -6.63365838	     -0.22752788	     30.64460643	     45.61376726	      0.00000000	      0.00000000
     12.53200000	     -5.60748810	     -4.94191756	      4.96501379	      0.79916049	      0.92965467	      0.49188947	      8.07903197	      5.22027728	    -19.10454868	     11.02936769	     11.02936769	     10.48847797	      1.12703415	     -5.15930549	     33.20343753	     -8.71595258	      1.09253575	     25.46297387	     25.46297387	     10.72115501	    -11.68635001	     11.23340106	    -10.08534367	      7.65284639	      2.69632822	     36.42435532	    -17.12182006	     -0.12635520	     78.27184492	     44.71694390	      0.00000000	      0.00000000	     -1.94323810	     -6.56940899	      0.00313600	     29.85199936	     45.56364709	      0.00000000	      0.00000000
     12.54550000	     -5.67394766	     -5.12067568	      5.09298726	      0.79808110	      0.92898045	      0.49121047	      7.52444226	      5.45901717	    -19.29733822	     10.58242777	     10.58242777	     10.74892724	      1.56469750	     -5.31987401	     33.34861154	     -8.58400963	      0.92668865	     22.86071800	     22.86071800	     10.48829953	     -9.84969464	     11.11112244	    -10.13034914	      7.84826237	      2.64441621	     38.26178821	    -16.87359352	      0.06664892	     80.81580739	     44.64531947	      0.00000000	      0.00000000	     -3.22329846	     -6.53650062	      0.36135569	     29.00677849	     45.49313541	      0.00000000	      0.00000000
     12.55900000	     -5.81758091	     -5.31088217	      5.19652737	      0.79713791	      0.92812475	      0.49048446	      7.09718689	      5.69849974	    -19.40500949	     10.23606884	     10.23606884	     11.02962488	      1.82676759	     -5.45603592	     33.55385018	     -8.44122510	      0.76888874	     20.62788650	     20.62788650	     10.22585038	     -8.30065019	     11.31355630	    -10.02237752	      8.00875716	      2.79388624	     40.01047280	    -16.71266306	      0.14024836	     82.66318940	     44.59615119	      0.00000000	      0.00000000	     -4.37445788	     -6.46158701	      0.58218619	     28.46918098	     45.44257850	      0.00000000	      0.00000000
     12.57250000	     -5.80087592	     -5.55083135	      5.27353648	      0.79662378	      0.92735693	      0.48975981	      6.34598834	      6.04283317	    -19.58493323	      9.64468348	      9.64468348	     11.23067419	      2.39446943	     -5.85307865	     33.62880270	     -8.44870240	      0.25616822	     18.92982932	     18.92982932	      9.72761721	     -6.76830575	     10.68525495	    -10.13411874	      8.25896890	      3.41515573	     40.83914898	    -17.21811801	      0.20348481	     86.74258110	     44.59214556	      0.00000000	      0.00000000	     -5.54129815	     -6.81979572	      3.70880209	     28.27056961	     44.99906071	      0.00000000	      0.00000000
     12.58600000	     -5.83058806	     -5.70694733	      5.34998741	      0.79630527	      0.92651375	      0.48892391	      5.71627524	      6.27448935	    -19.59534059	      9.24057393	      9.24057393	     11.57571816	      2.62082042	     -5.91169820	     33.70106502	     -8.33296365	     -0.15417719	     17.66796741	     17.66796741	      9.39104649	     -5.77163920	     11.00240014	    -10.06457935	      8.34271933	      3.27641859	     42.45309858	    -16.79492423	      0.33696619	     88.35419783	     44.55140412	      0.00000000	      0.00000000	     -6.88221604	     -6.92383563	      3.84967700	     27.88139094	     44.96277872	      0.00000000	      0.00000000
